HIERARCHY
ROOT Hips
{
  OFFSET 52.3884 53.5558 -8.00227
  CHANNELS 6 Xposition Yposition Zposition Zrotation Xrotation Yrotation
  JOINT spine
  {
    OFFSET 0 6.84637 0.3937
    CHANNELS 3 Zrotation Xrotation Yrotation
    JOINT spine1
    {
      OFFSET 0 9.49621 0
      CHANNELS 3 Zrotation Xrotation Yrotation
      JOINT spine2
      {
        OFFSET 0 9.09909 0
        CHANNELS 3 Zrotation Xrotation Yrotation
        JOINT Neck
        {
          OFFSET 0 23.3612 1.11378
          CHANNELS 3 Zrotation Xrotation Yrotation
          JOINT Head
          {
            OFFSET 0 7.05802 0
            CHANNELS 3 Zrotation Xrotation Yrotation
            End Site
            {
              OFFSET 0 17.0844 -5.63419
            }
          }
        }
        JOINT RightShoulder
        {
          OFFSET -3.83136 9.82631 -0.533491
          CHANNELS 3 Zrotation Xrotation Yrotation
          JOINT RightArm
          {
            OFFSET 0 12.8881 0
            CHANNELS 3 Zrotation Xrotation Yrotation
            JOINT RightArmRoll
            {
              OFFSET 0 6.50617 0
              CHANNELS 3 Zrotation Xrotation Yrotation
              JOINT RightForeArm
              {
                OFFSET 0 18.9501 0
                CHANNELS 3 Zrotation Xrotation Yrotation
                JOINT RightForeArmRoll
                {
                  OFFSET 0 7.30092 0
                  CHANNELS 3 Zrotation Xrotation Yrotation
                  JOINT RightHand
                  {
                    OFFSET 0 14.6514 0
                    CHANNELS 3 Zrotation Xrotation Yrotation
                    End Site
                    {
                      OFFSET 0 0 0
                    }
                  }
                }
              }
            }
          }
        }
        JOINT LeftShoulder
        {
          OFFSET 3.83136 9.82631 -0.533491
          CHANNELS 3 Zrotation Xrotation Yrotation
          JOINT LeftArm
          {
            OFFSET 0 12.8881 0
            CHANNELS 3 Zrotation Xrotation Yrotation
            JOINT LeftArmRoll
            {
              OFFSET 0 6.50617 0
              CHANNELS 3 Zrotation Xrotation Yrotation
              JOINT LeftForeArm
              {
                OFFSET 0 18.9501 0
                CHANNELS 3 Zrotation Xrotation Yrotation
                JOINT LeftForeArmRoll
                {
                  OFFSET 0 7.30092 0
                  CHANNELS 3 Zrotation Xrotation Yrotation
                  JOINT LeftHand
                  {
                    OFFSET 0 14.6514 0
                    CHANNELS 3 Zrotation Xrotation Yrotation
                    End Site
                    {
                      OFFSET 0 0 0
                    }
                  }
                }
              }
            }
          }
        }
      }
    }
  }
  JOINT RightUpLeg
  {
    OFFSET -6.06837 -1.11278 -0.933477
    CHANNELS 3 Zrotation Xrotation Yrotation
    JOINT RightUpLegRoll
    {
      OFFSET 0 17.1796 0
      CHANNELS 3 Zrotation Xrotation Yrotation
      JOINT RightLeg
      {
        OFFSET 0 -21.2743 0
        CHANNELS 3 Zrotation Xrotation Yrotation
        JOINT RightLegRoll
        {
          OFFSET 0 21.3439 0
          CHANNELS 3 Zrotation Xrotation Yrotation
          JOINT RightFoot
          {
            OFFSET 0 17.7652 0
            CHANNELS 3 Zrotation Xrotation Yrotation
            JOINT RightToeBase
            {
              OFFSET 0 14.8508 0
              CHANNELS 3 Zrotation Xrotation Yrotation
              End Site
              {
                OFFSET 0.0062947 7.19214 -0.829004
              }
            }
          }
        }
      }
    }
  }
  JOINT LeftUpLeg
  {
    OFFSET 6.06837 -1.11278 -0.933477
    CHANNELS 3 Zrotation Xrotation Yrotation
    JOINT LeftUpLegRoll
    {
      OFFSET 0 17.1797 0
      CHANNELS 3 Zrotation Xrotation Yrotation
      JOINT LeftLeg
      {
        OFFSET 0 21.2742 0
        CHANNELS 3 Zrotation Xrotation Yrotation
        JOINT LeftLegRoll
        {
          OFFSET 0 21.5412 0
          CHANNELS 3 Zrotation Xrotation Yrotation
          JOINT LeftFoot
          {
            OFFSET 0 17.5679 0
            CHANNELS 3 Zrotation Xrotation Yrotation
            JOINT LeftToeBase
            {
              OFFSET 0 14.8508 0
              CHANNELS 3 Zrotation Xrotation Yrotation
              End Site
              {
                OFFSET -0.0282102 7.19213 -0.829005
              }
            }
          }
        }
      }
    }
  }
}
MOTION
Frames: 13
Frame Time: 0.00208333
50.384 86.7532 19.8863 0.207766 2.67192 -3.36601 0.980096 -1.90602 1.02797 1.95316 0.213445 1.95112 1.93053 1.85758 1.91915 -19.4022 5.17479 -0.925282 16.3636 11.5596 -5.76515 50.092 -5.80647 -3.06998 136.794 48.2488 -35.3987 -3.2313e-006 4.55855e-006 6.29431e-006 27.778 2.64926 1.35396 -9.45594e-006 -1.1316e-006 -3.00806 8.03041 -4.95139 0.697728 -80.1759 -8.97357 5.87058 -99.6704 46.328 -3.46538 -1.66234e-006 -3.98554e-008 3.48386e-006 -27.0544 0.196201 -0.562223 1.18574e-005 -2.91268e-007 3.05207 -8.03035 -4.95137 -0.697722 175.194 18.784 1.27452 180 7.01586e-015 179.109 174.807 20.0633 -179.542 1.84119e-006 -1.13921e-006 0.248056 -18.0836 67.5492 19.1688 8.13649 25.2326 -3.48773 -176.042 17.3072 -0.0902676 4.54188e-006 -4.6773e-006 -0.747362 -1.37157 -21.9257 0.616577 1.72976e-006 -3.05524e-006 -0.324506 17.2075 70.5919 -21.6939 -8.13649 25.2327 3.48561 
50.385 86.7622 19.8865 0.203947 2.67462 -3.35956 0.980048 -1.90585 1.02787 1.95515 0.21333 1.95223 1.93252 1.85747 1.92022 -19.4038 5.29984 -0.91361 16.3644 11.605 -5.78152 50.1033 -5.79686 -3.06359 136.678 48.2112 -35.2255 -3.2313e-006 4.55855e-006 6.29431e-006 27.7666 2.58718 1.36574 -9.45594e-006 -1.1316e-006 -3.00806 8.03041 -4.95139 0.697728 -80.2027 -8.97524 5.87159 -99.5497 46.2627 -3.62266 -1.66234e-006 -3.98554e-008 3.48386e-006 -27.0073 0.19597 -0.542071 1.18574e-005 -2.91268e-007 3.05287 -8.03035 -4.95137 -0.697722 175.228 18.7934 1.21487 180 -7.01586e-015 179.109 174.852 20.0823 -179.553 1.84119e-006 -1.13921e-006 0.248427 -18.0543 67.548 19.1681 8.13649 25.2326 -3.48773 -176.036 17.3225 -0.0938365 4.54188e-006 -4.6773e-006 -0.74665 -1.37051 -21.9482 0.616962 1.72976e-006 -3.05524e-006 -0.324506 17.2145 70.6009 -21.7038 -8.13649 25.2327 3.48561 
50.3848 86.7609 19.8851 0.200156 2.67715 -3.35333 0.979975 -1.90568 1.02779 1.95718 0.213213 1.95345 1.93454 1.85735 1.9214 -19.406 5.42361 -0.902072 16.3657 11.6492 -5.79779 50.1146 -5.78688 -3.05692 136.562 48.1727 -35.0507 -3.2313e-006 4.55855e-006 6.29431e-006 27.7545 2.5262 1.3771 -9.45594e-006 -1.1316e-006 -3.00806 8.03041 -4.95139 0.697728 -80.2305 -8.97685 5.87258 -99.4283 46.1976 -3.7806 -1.66234e-006 -3.98554e-008 3.48386e-006 -26.96 0.195743 -0.521491 1.18574e-005 -2.91268e-007 3.05368 -8.03035 -4.95137 -0.697722 175.263 18.8028 1.15308 180 7.01586e-015 179.109 174.899 20.1019 -179.564 1.84119e-006 -1.13921e-006 0.248805 -18.0238 67.5466 19.1673 8.13649 25.2326 -3.48773 -176.029 17.3377 -0.0974777 4.54188e-006 -4.6773e-006 -0.745926 -1.36945 -21.9713 0.617348 1.72976e-006 -3.05524e-006 -0.324506 17.2219 70.6103 -21.7141 -8.13649 25.2327 3.48561 
50.3908 86.761 19.8845 0.196386 2.67956 -3.34725 0.979886 -1.90551 1.02774 1.95922 0.213094 1.95476 1.93658 1.85722 1.92266 -19.4085 5.54649 -0.890629 16.3674 11.6926 -5.814 50.1258 -5.77663 -3.05005 136.446 48.1334 -34.8748 -3.2313e-006 4.55855e-006 6.29431e-006 27.7421 2.466 1.38816 -9.45594e-006 -1.1316e-006 -3.00806 8.03041 -4.95139 0.697728 -80.2588 -8.97841 5.87357 -99.3064 46.1325 -3.93888 -1.66234e-006 -3.98554e-008 3.48386e-006 -26.9127 0.195517 -0.500612 1.18574e-005 -2.91268e-007 3.0545 -8.03035 -4.95137 -0.697722 175.299 18.8122 1.08977 180 7.01586e-015 179.109 174.947 20.1219 -179.576 1.84119e-006 -1.13921e-006 0.24919 -17.9924 67.5452 19.1665 8.13649 25.2326 -3.48773 -176.022 17.3529 -0.10117 4.54188e-006 -4.6773e-006 -0.745194 -1.36838 -21.9947 0.617734 1.72976e-006 -3.05524e-006 -0.324506 17.2296 70.6199 -21.7248 -8.13649 25.2327 3.48561 
50.3881 86.7646 19.884 0.192626 2.6819 -3.34127 0.979788 -1.90533 1.0277 1.96128 0.212973 1.95611 1.93863 1.8571 1.92397 -19.4113 5.66886 -0.879239 16.3692 11.7356 -5.83018 50.1369 -5.76623 -3.04307 136.33 48.0935 -34.6983 -3.2313e-006 4.55855e-006 6.29431e-006 27.7294 2.40624 1.39905 -9.45594e-006 -1.1316e-006 -3.00806 8.03041 -4.95139 0.697728 -80.2875 -8.97994 5.87455 -99.1846 46.0674 -4.0972 -1.66234e-006 -3.98554e-008 3.48386e-006 -26.8654 0.195292 -0.479562 1.18574e-005 -2.91268e-007 3.05532 -8.03035 -4.95137 -0.697722 175.336 18.8215 1.0256 180 7.01586e-015 179.109 174.995 20.142 -179.587 1.84119e-006 -1.13921e-006 0.249577 -17.9606 67.5437 19.1657 8.13649 25.2326 -3.48773 -176.015 17.368 -0.104891 4.54188e-006 -4.6773e-006 -0.744458 -1.36732 -22.0183 0.61812 1.72976e-006 -3.05524e-006 -0.324506 17.2375 70.6297 -21.7358 -8.13649 25.2327 3.48561 
50.3812 86.7615 19.8776 0.188869 2.68423 -3.33531 0.979687 -1.90515 1.02766 1.96333 0.212852 1.95747 1.94068 1.85698 1.92529 -19.4141 5.7911 -0.867861 16.3711 11.7784 -5.84635 50.1481 -5.7558 -3.03606 136.214 48.0531 -34.522 -3.2313e-006 4.55855e-006 6.29431e-006 27.7166 2.3466 1.4099 -9.45594e-006 -1.1316e-006 -3.00806 8.03041 -4.95139 0.697728 -80.3163 -8.98146 5.87552 -99.0632 46.0022 -4.25526 -1.66234e-006 -3.98554e-008 3.48386e-006 -26.818 0.195067 -0.45847 1.18574e-005 -2.91268e-007 3.05615 -8.03035 -4.95137 -0.697722 175.372 18.8308 0.9612 180 7.01586e-015 179.109 175.044 20.1622 -179.599 1.84119e-006 -1.13921e-006 0.249965 -17.9287 67.5422 19.1649 8.13649 25.2326 -3.48773 -176.009 17.3831 -0.10862 4.54188e-006 -4.6773e-006 -0.74372 -1.36625 -22.042 0.618507 1.72976e-006 -3.05524e-006 -0.324506 17.2455 70.6396 -21.7468 -8.13649 25.2327 3.48561 
50.3832 86.7629 19.8793 0.185106 2.68659 -3.32931 0.979591 -1.90497 1.02761 1.96539 0.212732 1.95881 1.94273 1.85686 1.92659 -19.4169 5.9136 -0.856456 16.3729 11.8215 -5.86256 50.1593 -5.74544 -3.02911 136.099 48.0124 -34.3464 -3.2313e-006 4.55855e-006 6.29431e-006 27.7041 2.28673 1.42084 -9.45594e-006 -1.1316e-006 -3.00806 8.03041 -4.95139 0.697728 -80.3449 -8.983 5.87651 -98.9426 45.9366 -4.41274 -1.66234e-006 -3.98554e-008 3.48386e-006 -26.7707 0.194842 -0.437462 1.18574e-005 -2.91268e-007 3.05697 -8.03035 -4.95137 -0.697722 175.409 18.8401 0.897227 180 7.01586e-015 179.109 175.093 20.1823 -179.611 1.84119e-006 -1.13921e-006 0.250352 -17.8969 67.5408 19.1641 8.13649 25.2326 -3.48773 -176.002 17.3982 -0.112336 4.54188e-006 -4.6773e-006 -0.742985 -1.36518 -22.0656 0.618893 1.72976e-006 -3.05524e-006 -0.324506 17.2534 70.6493 -21.7577 -8.13649 25.2327 3.48561 
50.3758 86.7524 19.8908 0.181327 2.68903 -3.32319 0.979507 -1.90479 1.02755 1.96743 0.212613 1.96009 1.94477 1.85674 1.92783 -19.4196 6.03674 -0.844982 16.3746 11.8651 -5.87882 50.1705 -5.73527 -3.0223 135.985 47.9717 -34.1719 -3.2313e-006 4.55855e-006 6.29431e-006 27.6918 2.22631 1.43199 -9.45594e-006 -1.1316e-006 -3.00806 8.03041 -4.95139 0.697728 -80.373 -8.98457 5.87749 -98.823 45.8707 -4.56935 -1.66234e-006 -3.98554e-008 3.48386e-006 -26.7234 0.194615 -0.416669 1.18574e-005 -2.91268e-007 3.05779 -8.03035 -4.95137 -0.697722 175.444 18.8493 0.834321 180 7.01586e-015 179.109 175.14 20.2021 -179.623 1.84119e-006 -1.13921e-006 0.250735 -17.8658 67.5394 19.1633 8.13649 25.2326 -3.48773 -175.995 17.4134 -0.116016 4.54188e-006 -4.6773e-006 -0.742256 -1.36411 -22.0889 0.61928 1.72976e-006 -3.05524e-006 -0.324506 17.2611 70.6589 -21.7683 -8.13649 25.2327 3.48561 
50.3753 86.7558 19.8905 0.177525 2.69161 -3.31689 0.979441 -1.90462 1.02747 1.96944 0.212496 1.96128 1.94678 1.85662 1.92898 -19.4219 6.1609 -0.833398 16.3759 11.9097 -5.89517 50.1817 -5.72539 -3.01572 135.872 47.931 -33.9993 -3.2313e-006 4.55855e-006 6.29431e-006 27.6801 2.165 1.44347 -9.45594e-006 -1.1316e-006 -3.00806 8.03041 -4.95139 0.697728 -80.4005 -8.9862 5.87849 -98.705 45.8042 -4.72477 -1.66234e-006 -3.98554e-008 3.48386e-006 -26.6762 0.194386 -0.396217 1.18574e-005 -2.91268e-007 3.05859 -8.03035 -4.95137 -0.697722 175.48 18.8586 0.773127 180 7.01586e-015 179.109 175.187 20.2215 -179.634 1.84119e-006 -1.13921e-006 0.251111 -17.8357 67.5381 19.1626 8.13649 25.2326 -3.48773 -175.989 17.4286 -0.119639 4.54188e-006 -4.6773e-006 -0.741535 -1.36305 -22.1118 0.619667 1.72976e-006 -3.05524e-006 -0.324506 17.2684 70.6681 -21.7786 -8.13649 25.2327 3.48561 
50.3783 86.7629 19.8873 0.17369 2.69438 -3.31035 0.979402 -1.90446 1.02736 1.97142 0.212383 1.96234 1.94875 1.8565 1.93 -19.4237 6.28646 -0.821664 16.3768 11.9555 -5.91165 50.1931 -5.71593 -3.00944 135.76 47.8907 -33.829 -3.2313e-006 4.55855e-006 6.29431e-006 27.6691 2.10248 1.45543 -9.45594e-006 -1.1316e-006 -3.00806 8.03041 -4.95139 0.697728 -80.4269 -8.9879 5.87951 -98.5889 45.7372 -4.8787 -1.66234e-006 -3.98554e-008 3.48386e-006 -26.6291 0.194154 -0.376236 1.18574e-005 -2.91268e-007 3.05939 -8.03035 -4.95137 -0.697722 175.513 18.8679 0.714292 180 7.01586e-015 179.109 175.231 20.2404 -179.645 1.84119e-006 -1.13921e-006 0.251478 -17.8068 67.5369 19.1618 8.13649 25.2326 -3.48773 -175.982 17.4439 -0.123184 4.54188e-006 -4.6773e-006 -0.740828 -1.36199 -22.1341 0.620055 1.72976e-006 -3.05524e-006 -0.324506 17.2753 70.6769 -21.7884 -8.13649 25.2327 3.48561 
50.3747 86.7602 19.8898 0.169813 2.69739 -3.30349 0.979396 -1.9043 1.02722 1.97336 0.212274 1.96324 1.95069 1.85639 1.93086 -19.425 6.41382 -0.809738 16.3772 12.0029 -5.92828 50.2046 -5.70699 -3.00356 135.65 47.8508 -33.6617 -3.2313e-006 4.55855e-006 6.29431e-006 27.6591 2.03841 1.46797 -9.45594e-006 -1.1316e-006 -3.00806 8.03041 -4.95139 0.697728 -80.4521 -8.9897 5.88055 -98.475 45.6694 -5.03084 -1.66234e-006 -3.98554e-008 3.48386e-006 -26.5821 0.193918 -0.356853 1.18574e-005 -2.91268e-007 3.06017 -8.03035 -4.95137 -0.697722 175.546 18.8772 0.658459 180 7.01586e-015 179.109 175.273 20.2585 -179.655 1.84119e-006 -1.13921e-006 0.251835 -17.7797 67.5358 19.1612 8.13649 25.2326 -3.48773 -175.975 17.4594 -0.126629 4.54188e-006 -4.6773e-006 -0.740137 -1.36093 -22.1557 0.620442 1.72976e-006 -3.05524e-006 -0.324506 17.2816 70.6851 -21.7974 -8.13649 25.2327 3.48561 
50.3628 86.7508 19.8888 0.165886 2.70069 -3.29626 0.97943 -1.90416 1.02703 1.97524 0.212169 1.96395 1.95257 1.85628 1.93152 -19.4256 6.54335 -0.797581 16.3768 12.0522 -5.94508 50.2162 -5.69869 -2.99816 135.541 47.8117 -33.4979 -3.2313e-006 4.55855e-006 6.29431e-006 27.6501 1.97245 1.48124 -9.45594e-006 -1.1316e-006 -3.00806 8.03041 -4.95139 0.697728 -80.4758 -8.99161 5.88161 -98.3637 45.6009 -5.18088 -1.66234e-006 -3.98554e-008 3.48386e-006 -26.5353 0.193678 -0.338196 1.18574e-005 -2.91268e-007 3.06094 -8.03035 -4.95137 -0.697722 175.576 18.8865 0.606274 180 7.01586e-015 179.109 175.311 20.2756 -179.664 1.84119e-006 -1.13921e-006 0.252177 -17.7546 67.535 19.1606 8.13649 25.2326 -3.48773 -175.969 17.475 -0.129953 4.54188e-006 -4.6773e-006 -0.739465 -1.35989 -22.1765 0.620829 1.72976e-006 -3.05524e-006 -0.324506 17.2871 70.6927 -21.8056 -8.13649 25.2327 3.48561 
50.3629 86.7489 19.8872 0.161899 2.70433 -3.28857 0.979512 -1.90403 1.02678 1.97707 0.21207 1.96442 1.9544 1.85618 1.93196 -19.4253 6.67544 -0.78515 16.3757 12.1038 -5.96211 50.228 -5.69113 -2.99332 135.435 47.7735 -33.338 -3.2313e-006 4.55855e-006 6.29431e-006 27.6425 1.90428 1.49535 -9.45594e-006 -1.1316e-006 -3.00806 8.03041 -4.95139 0.697728 -80.4977 -8.99366 5.8827 -98.2554 45.5314 -5.32851 -1.66234e-006 -3.98554e-008 3.48386e-006 -26.4887 0.193431 -0.320394 1.18574e-005 -2.91268e-007 3.06168 -8.03035 -4.95137 -0.697722 175.605 18.8958 0.558383 180 7.01586e-015 179.109 175.347 20.2917 -179.672 1.84119e-006 -1.13921e-006 0.252503 -17.7319 67.5343 19.1601 8.13649 25.2326 -3.48773 -175.963 17.4908 -0.133134 4.54188e-006 -4.6773e-006 -0.738817 -1.35885 -22.1962 0.621216 1.72976e-006 -3.05524e-006 -0.324506 17.2918 70.6994 -21.8128 -8.13649 25.2327 3.48561 
